<svg class="svg-icon" 
style="width: 1em; height: 1em;vertical-align: middle;fill:black; overflow: hidden;" 
viewBox="0 0 1024 1024" version="1.1" xmlns="http://www.w3.org/2000/svg">
<path d="M882.816 474.944h-33.92c-18.336-151.584-139.36-272.096-292.544-291.296V150.784c0-22.816-18.304-41.088-40.32-41.088-22.912 0-41.248 18.272-41.248 41.088v32.864c-152.224 19.2-273.248 139.712-292.512 291.296H149.28c-22.944 0-41.28 18.24-41.28 41.088 0 21.888 18.336 40.16 41.28 40.16h32.992c19.264 152.48 140.288 272.992 292.512 291.264v33.824c0 21.92 18.336 40.16 41.248 40.16 22.016 0 40.32-18.24 40.32-40.16v-33.824c153.152-18.24 274.176-138.784 292.544-291.264h33.92a40.64 40.64 0 0 0 40.352-40.16c0-22.848-18.336-41.088-40.352-41.088z m-116.448 0h-105.472a152.96 152.96 0 0 0-104.544-104.096V266.752c107.328 17.344 192.576 101.344 210.016 208.192z m-291.584-208.224v104.096a153.248 153.248 0 0 0-104.544 104.096H265.728a252.672 252.672 0 0 1 209.056-208.192z m-209.024 289.472h104.512a153.248 153.248 0 0 0 104.544 104.096v104.992a253.6 253.6 0 0 1-209.056-209.088z m290.624 209.088v-104.992a153.12 153.12 0 0 0 104.544-104.096h105.472c-17.472 106.816-102.72 191.712-210.016 209.088z"  />
</svg>